<svg width="25" height="26" viewBox="0 0 25 26" fill="none" xmlns="http://www.w3.org/2000/svg">
  <path
    d="M24.8406 13.1654L15.0582 25.0072C14.9562 25.1306 14.8179 25.2 14.6737 25.2C14.5294 25.2 14.3911 25.1306 14.2892 25.0072C14.1872 24.8837 14.1299 24.7163 14.1299 24.5417C14.1299 24.3672 14.1872 24.1997 14.2892 24.0763L23.1436 13.3579H0.543469C0.399332 13.3579 0.261099 13.2885 0.159178 13.1652C0.0572583 13.0418 0 12.8745 0 12.7C0 12.5255 0.0572583 12.3582 0.159178 12.2348C0.261099 12.1114 0.399332 12.0421 0.543469 12.0421H23.1436L14.2892 1.32367C14.1872 1.20023 14.1299 1.0328 14.1299 0.858223C14.1299 0.683647 14.1872 0.516221 14.2892 0.392776C14.3911 0.269332 14.5294 0.199982 14.6737 0.199982C14.8179 0.199982 14.9562 0.269332 15.0582 0.392776L24.8406 12.2345C24.8911 12.2956 24.9312 12.3682 24.9586 12.4481C24.9859 12.5279 25 12.6135 25 12.7C25 12.7864 24.9859 12.872 24.9586 12.9519C24.9312 13.0318 24.8911 13.1043 24.8406 13.1654Z"
    fill="white" />
</svg>
  