<svg width="25" height="26" viewBox="0 0 25 26" fill="none" xmlns="http://www.w3.org/2000/svg">
  <path
    d="M0.159392 12.2346L9.94183 0.392837C10.0438 0.269393 10.1821 0.200042 10.3263 0.200042C10.4706 0.200042 10.6089 0.269393 10.7108 0.392837C10.8128 0.516282 10.8701 0.683708 10.8701 0.858285C10.8701 1.03286 10.8128 1.20029 10.7108 1.32373L1.85637 12.0422L24.4565 12.0422C24.6007 12.0422 24.7389 12.1115 24.8408 12.2349C24.9427 12.3582 25 12.5256 25 12.7C25 12.8745 24.9427 13.0419 24.8408 13.1652C24.7389 13.2886 24.6007 13.3579 24.4565 13.3579L1.85637 13.3579L10.7108 24.0764C10.8128 24.1998 10.8701 24.3672 10.8701 24.5418C10.8701 24.7164 10.8128 24.8838 10.7108 25.0072C10.6089 25.1307 10.4706 25.2 10.3263 25.2C10.1821 25.2 10.0438 25.1307 9.94183 25.0072L0.159392 13.1655C0.108861 13.1044 0.068776 13.0318 0.0414265 12.952C0.0140771 12.8721 8.22122e-07 12.7865 8.14564e-07 12.7C8.07006e-07 12.6136 0.014077 12.528 0.0414265 12.4481C0.068776 12.3683 0.108861 12.2957 0.159392 12.2346Z"
    fill="white" />
</svg>
  