<svg width="710" height="710" viewBox="0 0 710 710" fill="none" xmlns="http://www.w3.org/2000/svg">
  <path
    d="M598 355C598 512.754 470.115 640.638 312.362 640.638L3.78461 640.639L3.78456 69.3616L598 69.3615L598 355Z"
    fill="#D9D9D9" fill-opacity="0.5" />
  <path
    d="M481.061 465.632L454.251 452.391L474.38 615.137H237.836C235.358 615.137 233.342 613.142 233.32 610.657L232.589 521.85L232.163 470.993L231.844 432.915L231.815 429.301L231.723 418.204V418.176C231.73 418.14 231.73 418.112 231.723 418.098C231.723 418.098 231.723 418.098 231.723 418.091L231.198 354.688C173.609 352.834 166.012 360.119 166.012 360.119C166.985 310.277 138.109 292.683 122.681 286.847C123.306 286.535 123.938 286.222 124.577 285.917C181.59 258.617 277.262 290.276 277.262 290.276C277.262 290.276 303.646 318.549 340.396 298.129L519.301 389.186C477.248 414.612 481.061 465.632 481.061 465.632Z"
    fill="#15E823" />
  <path
    d="M231.197 356.108C230.416 356.108 229.777 355.469 229.777 354.688V335.795C229.777 335.014 230.416 334.375 231.197 334.375C231.978 334.375 232.617 335.014 232.617 335.795V354.688C232.617 355.469 231.978 356.108 231.197 356.108Z"
    fill="#323232" />
  <path
    d="M320.991 575.221H306.06C305.385 575.221 304.803 574.745 304.668 574.092L243.977 282.282C243.814 281.515 244.311 280.762 245.078 280.599C245.845 280.436 246.597 280.933 246.761 281.7L307.217 572.381H319.827L371.955 314.615C372.111 313.848 372.857 313.351 373.63 313.508C374.397 313.664 374.894 314.409 374.738 315.183L322.383 574.085C322.248 574.745 321.666 575.221 320.991 575.221Z"
    fill="white" />
  <path
    d="M339.508 580.681V639.618C339.508 644.304 335.674 648.138 330.988 648.138H295.083C290.397 648.138 286.563 644.304 286.563 639.618V580.681C286.563 575.995 290.397 572.161 295.083 572.161H330.988C335.674 572.161 339.508 575.995 339.508 580.681Z"
    fill="#2AB734" />
  <path
    d="M301.374 638.176H300.763C298.896 638.176 297.369 636.65 297.369 634.783V623.728C297.369 621.861 298.896 620.334 300.763 620.334H301.374C303.241 620.334 304.768 621.861 304.768 623.728V634.783C304.76 636.65 303.241 638.176 301.374 638.176Z"
    fill="#323232" />
  <path
    d="M325.514 638.176H324.903C323.036 638.176 321.509 636.65 321.509 634.783V623.728C321.509 621.861 323.036 620.334 324.903 620.334H325.514C327.381 620.334 328.908 621.861 328.908 623.728V634.783C328.901 636.65 327.381 638.176 325.514 638.176Z"
    fill="#323232" />
  <path
    d="M326.863 615.449H299.215C298.434 615.449 297.795 614.81 297.795 614.029V586.382C297.795 585.601 298.434 584.962 299.215 584.962H326.863C327.644 584.962 328.283 585.601 328.283 586.382V614.029C328.283 614.81 327.644 615.449 326.863 615.449ZM300.635 612.609H325.443V587.802H300.635V612.609Z"
    fill="white" />
  <path
    d="M317.938 613.156C314.132 613.156 311.03 610.06 311.03 606.248C311.03 602.435 314.125 599.339 317.938 599.339C321.744 599.339 324.846 602.435 324.846 606.248C324.846 610.06 321.751 613.156 317.938 613.156ZM317.938 602.179C315.694 602.179 313.87 604.004 313.87 606.248C313.87 608.491 315.694 610.316 317.938 610.316C320.182 610.316 322.006 608.491 322.006 606.248C322.006 604.004 320.182 602.179 317.938 602.179Z"
    fill="#323232" />
  <path d="M329.54 608.186H296.532V620.959H329.54V608.186Z" fill="white" />
  <path
    d="M329.539 622.372H296.532C295.751 622.372 295.112 621.733 295.112 620.952V608.186C295.112 607.405 295.751 606.766 296.532 606.766H329.539C330.32 606.766 330.959 607.405 330.959 608.186V620.959C330.959 621.74 330.328 622.372 329.539 622.372ZM297.952 619.532H328.119V609.606H297.952V619.532Z"
    fill="white" />
  <path
    d="M323.753 619.155C325.961 619.155 327.75 617.366 327.75 615.158C327.75 612.951 325.961 611.161 323.753 611.161C321.545 611.161 319.756 612.951 319.756 615.158C319.756 617.366 321.545 619.155 323.753 619.155Z"
    fill="#FFAB93" />
  <path
    d="M302.446 619.155C304.654 619.155 306.443 617.366 306.443 615.158C306.443 612.951 304.654 611.161 302.446 611.161C300.238 611.161 298.449 612.951 298.449 615.158C298.449 617.366 300.238 619.155 302.446 619.155Z"
    fill="#FFAB93" />
  <path
    d="M502.701 594.646C502.701 601.533 502.36 608.371 501.679 615.137H465.966C466.782 608.392 467.201 601.548 467.201 594.646C467.201 549.973 449.749 507.984 418.069 476.46C386.709 445.255 344.03 427.747 299.79 427.924C284.561 427.988 269.651 430.075 255.359 434.073C247.328 436.309 239.497 439.156 231.921 442.578C213.781 450.765 197.089 462.267 182.591 476.758C151.102 508.246 133.757 550.115 133.757 594.646C133.757 600.575 134.069 606.468 134.673 612.283C134.829 613.802 133.657 615.137 132.124 615.137H101.615C100.287 615.137 99.1727 614.129 99.0591 612.808C98.5266 606.801 98.2568 600.745 98.2568 594.646C98.2568 540.495 119.401 489.595 157.776 451.368C196.336 412.964 248.997 391.679 303.411 392.445C356.328 393.191 405.964 414.157 443.466 451.659C481.664 489.85 502.701 540.63 502.701 594.646Z"
    fill="#7D865B" />
  <path
    d="M139.508 552.38C139.394 552.38 139.288 552.366 139.174 552.337L104.647 543.974C103.887 543.789 103.418 543.022 103.603 542.263C103.788 541.503 104.554 541.027 105.314 541.219L139.841 549.583C140.601 549.767 141.07 550.534 140.885 551.294C140.736 551.94 140.154 552.38 139.508 552.38Z"
    fill="#323232" />
  <path
    d="M253.988 435.876C253.385 435.876 252.824 435.493 252.632 434.882L241.904 401.015C241.67 400.27 242.082 399.467 242.827 399.233C243.573 398.992 244.375 399.41 244.609 400.156L255.337 434.023C255.572 434.768 255.16 435.571 254.414 435.805C254.272 435.855 254.13 435.876 253.988 435.876Z"
    fill="#323232" />
  <path
    d="M374.12 446.398C373.893 446.398 373.666 446.341 373.453 446.228C372.757 445.859 372.501 445 372.871 444.304L389.584 412.95C389.953 412.254 390.812 411.992 391.508 412.368C392.204 412.737 392.46 413.596 392.09 414.292L375.377 445.646C375.114 446.121 374.624 446.398 374.12 446.398Z"
    fill="#323232" />
  <path
    d="M444.836 512.514C444.375 512.514 443.92 512.286 443.643 511.867C443.217 511.214 443.402 510.334 444.055 509.901L473.833 490.475C474.486 490.042 475.373 490.234 475.799 490.887C476.225 491.54 476.041 492.421 475.388 492.854L445.61 512.279C445.369 512.435 445.099 512.514 444.836 512.514Z"
    fill="#323232" />
  <path
    d="M636.139 565.132C634.605 570.038 632.66 574.937 630.267 579.488C619.134 600.667 599.212 617.153 578.572 628.542C557.172 640.349 534.609 645.454 511.384 651.262C511.377 651.262 467.996 662.11 452.646 650.445C437.296 638.78 447.122 627.32 447.122 627.32C443.963 622.358 442.309 618.353 441.613 615.137C439.469 605.211 446.42 602.762 446.42 602.762C436.501 591.508 448.961 582.299 448.961 582.299C442.912 565.174 448.869 555.27 454.116 550.285C457.211 547.339 460.059 546.104 460.059 546.104C462.132 552.955 463.765 559.956 464.943 567.077C468.593 568.731 488.622 576.811 499.748 559.927C499.251 557.023 498.69 554.141 498.065 551.28C499.925 550.832 502.041 551.109 504.228 551.833C512.407 554.517 521.523 563.371 521.523 563.371C552.387 551.798 550.939 538.776 550.939 538.776C560.098 507.92 481.06 465.632 481.06 465.632C481.06 465.632 477.248 414.612 519.301 389.187C541.531 400.504 561.227 415.563 579.942 431.886C616.599 463.864 652.206 513.841 636.139 565.132Z"
    fill="#AF5D44" />
  <path
    d="M204.089 477.092C203.827 490.496 190.947 492.726 190.947 492.726C191.345 508.623 178.238 510.028 178.238 510.028C175.895 518.513 165.366 528.751 145.188 524.946C125.01 521.147 112.116 491.306 112.116 491.306C94.3093 461.173 86.1443 429.287 78.0077 395.037C73.1442 374.553 72.9738 353.566 80.2513 333.451C87.7347 312.769 103.22 296.688 122.681 286.847C138.109 292.683 166.985 310.277 166.012 360.119C155.937 366.261 152.785 375.008 152.771 383.542C152.756 398.225 162.725 411.012 176.762 415.314C185.537 418.005 191.324 420.59 194.604 422.272C194.604 422.272 173.51 437.985 185.892 449.664C198.275 461.337 222.883 446.995 222.883 446.995L224.19 448.188C231.808 466.321 204.089 477.092 204.089 477.092Z"
    fill="#AF5D44" />
  <path
    d="M177.202 511.498C174.191 511.498 166.112 510.589 158.231 501.871C157.705 501.288 157.748 500.394 158.33 499.861C158.912 499.336 159.807 499.379 160.332 499.961C169.087 509.645 177.962 508.63 178.054 508.616C178.835 508.509 179.545 509.063 179.644 509.844C179.744 510.618 179.197 511.335 178.416 511.434C178.338 511.449 177.912 511.498 177.202 511.498Z"
    fill="#323232" />
  <path
    d="M189.769 494.032C186.758 494.032 178.679 493.123 170.798 484.405C170.272 483.822 170.315 482.928 170.897 482.395C171.479 481.87 172.374 481.913 172.899 482.495C181.653 492.179 190.528 491.164 190.621 491.15C191.402 491.043 192.112 491.597 192.211 492.378C192.311 493.152 191.764 493.869 190.983 493.968C190.905 493.982 190.479 494.032 189.769 494.032Z"
    fill="#323232" />
  <path
    d="M202.719 477.78C199.709 477.78 191.629 476.871 183.748 468.153C183.223 467.57 183.265 466.676 183.847 466.143C184.43 465.618 185.324 465.661 185.85 466.243C194.54 475.856 203.209 474.94 203.571 474.898C204.352 474.805 205.055 475.359 205.154 476.133C205.254 476.907 204.707 477.617 203.926 477.716C203.862 477.731 203.429 477.78 202.719 477.78Z"
    fill="#323232" />
  <path
    d="M460.584 633.107C450.85 633.107 446.306 628.52 446.1 628.3C445.553 627.732 445.575 626.838 446.136 626.291C446.696 625.751 447.591 625.766 448.138 626.327C448.344 626.532 453.115 631.233 463.8 630.09C464.581 630.019 465.277 630.572 465.362 631.353C465.448 632.134 464.88 632.83 464.099 632.915C462.863 633.05 461.685 633.107 460.584 633.107Z"
    fill="#323232" />
  <path
    d="M459.761 608.896C450.026 608.896 445.482 604.309 445.277 604.089C444.73 603.521 444.751 602.627 445.312 602.08C445.873 601.54 446.768 601.555 447.314 602.115C447.52 602.321 452.284 607.022 462.977 605.878C463.758 605.807 464.454 606.361 464.539 607.142C464.624 607.923 464.056 608.619 463.275 608.704C462.04 608.839 460.868 608.896 459.761 608.896Z"
    fill="#323232" />
  <path
    d="M462.586 588.952C452.845 588.952 448.308 584.366 448.102 584.145C447.556 583.577 447.577 582.683 448.138 582.136C448.699 581.596 449.593 581.611 450.14 582.172C450.353 582.385 455.131 587.071 465.803 585.935C466.584 585.864 467.279 586.417 467.365 587.198C467.45 587.979 466.882 588.675 466.101 588.76C464.865 588.895 463.694 588.952 462.586 588.952Z"
    fill="#323232" />
  <path
    d="M526.38 588.952C526.33 588.952 526.273 588.952 526.224 588.945C525.443 588.86 524.882 588.157 524.967 587.376C526.856 570.18 520.657 564.5 520.593 564.443C520.011 563.925 519.947 563.03 520.451 562.448C520.963 561.858 521.843 561.788 522.439 562.292C522.745 562.547 529.852 568.816 527.786 587.688C527.708 588.412 527.09 588.952 526.38 588.952Z"
    fill="#323232" />
  <path
    d="M177.202 511.498C174.191 511.498 166.112 510.589 158.231 501.871C157.705 501.288 157.748 500.394 158.33 499.861C158.912 499.336 159.807 499.379 160.332 499.961C169.087 509.645 177.962 508.63 178.054 508.616C178.835 508.509 179.545 509.063 179.644 509.844C179.744 510.618 179.197 511.335 178.416 511.434C178.338 511.449 177.912 511.498 177.202 511.498Z"
    fill="#323232" />
  <path
    d="M377.947 169.69C377.947 173.716 376.875 177.493 375.001 180.745C374.731 181.22 374.44 181.682 374.127 182.129C370.144 188.015 363.406 191.878 355.76 191.878C354.695 191.878 353.644 191.799 352.614 191.657C351.798 206.709 346.757 220.327 338.947 230.715C338.294 231.581 337.626 232.426 336.93 233.242C336.121 234.215 335.283 235.152 334.417 236.054C325.478 245.383 313.934 251.006 301.338 251.006C292.641 251.006 284.44 248.322 277.262 243.594C271.916 240.072 267.123 235.408 263.112 229.87C263.076 229.82 263.034 229.77 262.998 229.713C256.637 220.895 252.235 209.869 250.623 197.678C248.287 198.516 245.759 198.978 243.125 198.978C232.042 198.978 222.855 190.848 221.208 180.226C221.129 179.744 221.066 179.254 221.023 178.764C220.966 178.111 220.938 177.457 220.938 176.79C220.938 164.535 230.871 154.603 243.125 154.603C244.389 154.603 245.624 154.709 246.824 154.915C246.81 154.908 246.803 154.908 246.789 154.901C247.179 126.707 269.722 103.88 297.788 103.014C298.335 102.993 298.889 102.986 299.442 102.986C305.584 102.986 311.484 104.036 316.965 105.975C335.084 112.365 348.66 128.382 351.535 147.893C351.507 147.907 351.471 147.914 351.443 147.929C352.842 147.652 354.283 147.503 355.76 147.503C368.014 147.503 377.947 157.435 377.947 169.69Z"
    fill="#AF5D44" />
  <path
    d="M340.395 298.129C303.646 318.549 277.262 290.276 277.262 290.276V243.594C282.715 247.186 288.764 249.6 295.168 250.545C297.192 250.85 299.251 251.006 301.338 251.006C313.934 251.006 325.478 245.383 334.417 236.054L340.395 298.129Z"
    fill="#AF5D44" />
  <path
    d="M299.684 252.803C284.391 252.803 276.652 245.135 276.268 244.744C275.721 244.183 275.729 243.289 276.289 242.735C276.85 242.188 277.745 242.195 278.299 242.749C278.341 242.792 280.947 245.369 286.009 247.407C290.695 249.295 298.527 251.106 309.184 248.976C309.958 248.819 310.703 249.324 310.852 250.09C311.008 250.857 310.504 251.61 309.738 251.759C306.088 252.497 302.737 252.803 299.684 252.803Z"
    fill="#323232" />
  <path
    d="M311.839 305.641C300.032 305.641 287.294 302.155 276.268 291.285C275.707 290.738 275.7 289.836 276.254 289.275C276.801 288.714 277.702 288.707 278.263 289.261C298.711 309.418 325.634 302.645 339.863 296.808C340.587 296.51 341.418 296.858 341.716 297.582C342.014 298.307 341.666 299.137 340.942 299.435C333.65 302.425 323.171 305.641 311.839 305.641Z"
    fill="white" />
  <path
    d="M351.535 147.893C338.216 152.657 324.051 151.557 313.124 143.576C310.526 141.681 308.239 139.487 306.28 137.058C296.659 149.725 281.444 157.897 264.319 157.897C258.17 157.897 252.27 156.846 246.789 154.901C247.179 126.707 269.722 103.88 297.788 103.014C298.335 102.993 298.889 102.986 299.442 102.986C305.584 102.986 311.484 104.036 316.965 105.975C335.084 112.365 348.66 128.382 351.535 147.893Z"
    fill="#323232" />
  <path
    d="M297.121 90.7025C307.214 90.7025 315.396 82.5203 315.396 72.4271C315.396 62.3339 307.214 54.1517 297.121 54.1517C287.028 54.1517 278.845 62.3339 278.845 72.4271C278.845 82.5203 287.028 90.7025 297.121 90.7025Z"
    fill="#323232" />
  <path
    d="M262.998 229.713L246.867 248.33C246.278 249.011 245.298 249.21 244.488 248.805L215.449 234.293C214.562 233.853 214.143 232.823 214.463 231.886L220.938 212.986L198.445 223.87C197.813 224.175 197.068 224.126 196.485 223.735L173.609 208.428C172.047 207.384 172.502 204.991 174.333 204.579C197.685 199.304 213.93 186.822 221.215 180.234C222.862 190.855 232.049 198.985 243.132 198.985C245.766 198.985 248.294 198.523 250.63 197.685C252.235 209.869 256.637 220.895 262.998 229.713Z"
    fill="#323232" />
  <path
    d="M383.535 226.795L366.403 221.648L372.906 234.293C373.375 235.202 372.892 236.316 371.905 236.593L348.503 243.26C347.95 243.416 347.353 243.267 346.934 242.87L336.923 233.242C337.619 232.426 338.287 231.581 338.94 230.715C346.75 220.327 351.791 206.709 352.607 191.657C353.637 191.799 354.688 191.878 355.753 191.878C363.399 191.878 370.137 188.015 374.12 182.129C379.296 187.106 391.359 196.556 409.613 198.211C411.431 198.374 412.198 200.618 410.877 201.874L385.111 226.412C384.699 226.817 384.089 226.959 383.535 226.795Z"
    fill="#323232" />
  <path
    d="M244.027 209.628C243.999 209.628 243.963 209.628 243.928 209.628L230.835 208.74C230.338 208.705 229.891 208.413 229.664 207.966C229.436 207.519 229.465 206.986 229.728 206.567L237.019 195.002C237.296 194.561 237.786 194.313 238.311 194.341C238.83 194.377 239.291 194.689 239.511 195.158L245.312 207.604C245.525 208.058 245.482 208.591 245.198 209.01C244.936 209.4 244.496 209.628 244.027 209.628ZM233.405 206.07L241.727 206.631L238.042 198.722L233.405 206.07Z"
    fill="#7D865B" />
  <path
    d="M357.222 202.407C356.938 201.995 356.896 201.463 357.109 201.001L362.909 188.555C363.129 188.086 363.591 187.774 364.109 187.738C364.628 187.71 365.125 187.958 365.401 188.399L372.693 199.964C372.963 200.39 372.984 200.923 372.757 201.363C372.53 201.803 372.083 202.102 371.586 202.137L358.486 203.017C358.451 203.017 358.422 203.017 358.387 203.017C357.925 203.025 357.492 202.79 357.222 202.407ZM364.386 192.112L360.701 200.021L369.022 199.46L364.386 192.112Z"
    fill="#7D865B" />
  <path
    d="M245.859 177.401H233.114C232.333 177.401 231.694 176.762 231.694 175.981C231.694 175.2 232.333 174.561 233.114 174.561H245.859C246.64 174.561 247.279 175.2 247.279 175.981C247.279 176.762 246.647 177.401 245.859 177.401Z"
    fill="#323232" />
  <path
    d="M363.52 170.741H350.776C349.995 170.741 349.356 170.102 349.356 169.321C349.356 168.54 349.995 167.901 350.776 167.901H363.52C364.301 167.901 364.94 168.54 364.94 169.321C364.94 170.102 364.308 170.741 363.52 170.741Z"
    fill="#323232" />
  <path
    d="M296.617 190.855C296.468 190.855 296.319 190.834 296.169 190.784C293.386 189.854 291.633 187.071 292.002 184.167L293.635 171.117C293.734 170.336 294.444 169.789 295.218 169.882C295.999 169.981 296.546 170.691 296.453 171.465L294.82 184.515C294.622 186.084 295.573 187.589 297.071 188.086C297.817 188.335 298.214 189.137 297.973 189.882C297.767 190.479 297.213 190.855 296.617 190.855Z"
    fill="#323232" />
  <path
    d="M297.369 199.872C296.823 199.872 296.496 199.844 296.475 199.844C295.694 199.766 295.126 199.063 295.211 198.282C295.289 197.501 295.985 196.94 296.766 197.018C297.305 197.068 309.596 198.097 311.591 183.215C311.697 182.434 312.407 181.895 313.188 181.994C313.962 182.101 314.509 182.811 314.409 183.592C312.365 198.764 300.713 199.872 297.369 199.872Z"
    fill="#323232" />
  <path
    d="M273.392 170.949C277.72 167.88 279.956 163.598 278.387 161.385C276.817 159.171 272.036 159.864 267.708 162.933C263.38 166.001 261.143 170.284 262.713 172.497C264.282 174.711 269.063 174.018 273.392 170.949Z"
    fill="#323232" />
  <path
    d="M327.548 170.247C329.321 168.192 327.501 163.718 323.484 160.252C319.466 156.787 314.773 155.643 313 157.697C311.228 159.752 313.048 164.227 317.065 167.693C321.082 171.158 325.776 172.302 327.548 170.247Z"
    fill="#323232" />
  <path
    d="M274.671 179.062C276.012 179.062 277.099 177.975 277.099 176.634C277.099 175.293 276.012 174.206 274.671 174.206C273.33 174.206 272.242 175.293 272.242 176.634C272.242 177.975 273.33 179.062 274.671 179.062Z"
    fill="#323232" />
  <path
    d="M316.717 177.564C318.058 177.564 319.145 176.477 319.145 175.136C319.145 173.795 318.058 172.708 316.717 172.708C315.376 172.708 314.289 173.795 314.289 175.136C314.289 176.477 315.376 177.564 316.717 177.564Z"
    fill="#323232" />
  <path
    d="M331.279 193.958C334.604 193.958 337.3 191.262 337.3 187.937C337.3 184.612 334.604 181.916 331.279 181.916C327.954 181.916 325.258 184.612 325.258 187.937C325.258 191.262 327.954 193.958 331.279 193.958Z"
    fill="#FFAB93" />
  <path
    d="M530.931 294.735H422.493C422.074 294.735 421.676 294.551 421.406 294.231C421.137 293.912 421.023 293.486 421.094 293.074C423.906 277.149 438.248 274.096 442.706 273.528C443.111 266.967 446.611 237.815 476.708 237.736C476.744 237.736 476.786 237.736 476.829 237.736C495.012 237.736 504.143 248.429 508.608 257.41C512.343 264.929 513.479 272.363 513.806 275.452C519.003 275.111 523.242 276.375 526.437 279.215C532.287 284.419 532.351 292.953 532.351 293.315C532.351 294.096 531.712 294.735 530.931 294.735ZM424.239 291.895H529.404C529.135 289.481 528.141 284.518 524.527 281.323C521.673 278.796 517.689 277.816 512.67 278.405C512.279 278.448 511.889 278.334 511.583 278.079C511.285 277.823 511.101 277.454 511.079 277.063C511.072 276.971 510.561 267.691 506.017 258.596C500.046 246.64 490.22 240.569 476.822 240.569C476.786 240.569 476.744 240.569 476.708 240.569C463.744 240.605 454.563 246.335 449.409 257.602C445.511 266.129 445.482 274.727 445.482 274.813C445.482 275.579 444.879 276.211 444.112 276.233C443.438 276.261 427.938 276.992 424.239 291.895Z"
    fill="#15E823" />
  <path
    d="M593.042 220.512H550.932C550.527 220.512 550.136 220.341 549.867 220.036C549.597 219.731 549.469 219.326 549.519 218.921C550.143 213.682 551.904 210.025 554.751 208.051C556.441 206.873 558.173 206.56 559.416 206.525C559.416 203.983 559.835 199.105 562.788 195.818C564.734 193.652 567.403 192.552 570.733 192.538C570.748 192.538 570.769 192.538 570.79 192.538C574.099 192.538 576.825 193.624 578.877 195.768C582.108 199.134 582.754 204.21 582.867 206.674C594.327 207.54 594.462 218.978 594.462 219.099C594.462 219.88 593.823 220.512 593.042 220.512ZM552.579 217.672H591.48C591.032 214.988 589.179 209.457 581.462 209.457C581.071 209.457 580.702 209.301 580.432 209.017C580.162 208.733 580.02 208.357 580.042 207.973C580.042 207.909 580.283 201.328 576.818 197.721C575.299 196.145 573.325 195.378 570.79 195.378C570.776 195.378 570.762 195.378 570.748 195.378C568.227 195.385 566.317 196.152 564.911 197.714C561.674 201.313 562.313 207.838 562.32 207.902C562.37 208.364 562.192 208.811 561.844 209.116C561.496 209.422 561.021 209.535 560.573 209.429C560.495 209.407 558.394 208.96 556.335 210.416C554.503 211.708 553.218 214.2 552.579 217.672Z"
    fill="#15E823" />
  <path
    d="M525.08 156.867H444.126C443.729 156.867 443.352 156.704 443.083 156.413C442.813 156.122 442.678 155.738 442.706 155.341C443.303 147.389 445.972 141.602 450.651 138.145C455.763 134.368 461.805 134.481 464.645 134.801C465.235 128.95 468.586 109.077 486.847 109.077C505.186 109.077 508.545 128.858 509.127 134.538C514.814 134.14 519.223 135.546 522.262 138.72C528.141 144.847 526.543 155.234 526.472 155.675C526.373 156.363 525.776 156.867 525.08 156.867ZM445.688 154.027H523.802C524.008 151.329 524.065 144.684 520.21 140.679C517.562 137.925 513.451 136.86 507.998 137.499C507.607 137.548 507.21 137.428 506.904 137.165C506.606 136.902 506.422 136.533 506.407 136.135C506.407 136.072 506.173 129.866 503.567 123.781C500.195 115.907 494.572 111.917 486.847 111.917C479.129 111.917 473.52 115.964 470.169 123.945C467.578 130.115 467.365 136.412 467.365 136.476C467.35 136.902 467.152 137.3 466.811 137.555C466.477 137.818 466.044 137.91 465.625 137.818C465.554 137.804 458.056 136.185 452.313 140.438C448.649 143.179 446.42 147.744 445.688 154.027Z"
    fill="#15E823" />
  <path
    d="M135.191 155.88C134.588 155.88 134.034 155.497 133.842 154.901C132.884 151.933 131.499 150.165 129.738 149.64C126.856 148.78 123.604 151.365 123.575 151.393C122.965 151.883 122.07 151.791 121.58 151.18C121.09 150.57 121.176 149.682 121.786 149.185C121.964 149.043 126.21 145.635 130.533 146.913C132.152 147.389 133.53 148.44 134.644 150.03C135.092 149.001 135.759 147.971 136.774 147.162C138.734 145.607 141.418 145.28 144.755 146.182C145.514 146.388 145.955 147.169 145.756 147.928C145.55 148.688 144.769 149.128 144.009 148.93C141.595 148.276 139.763 148.425 138.549 149.384C136.533 150.974 136.611 154.382 136.611 154.418C136.632 155.121 136.128 155.738 135.432 155.859C135.347 155.873 135.269 155.88 135.191 155.88Z"
    fill="#15E823" />
  <path
    d="M578.565 350.335C577.961 350.335 577.407 349.945 577.216 349.355C576.25 346.388 574.873 344.62 573.112 344.094C570.244 343.235 566.985 345.82 566.949 345.848C566.339 346.338 565.444 346.246 564.954 345.635C564.464 345.024 564.556 344.137 565.16 343.64C565.337 343.498 569.583 340.09 573.907 341.368C575.526 341.844 576.903 342.894 578.018 344.485C578.465 343.455 579.14 342.426 580.148 341.616C582.108 340.062 584.791 339.728 588.128 340.637C588.888 340.843 589.335 341.624 589.13 342.376C588.924 343.136 588.143 343.576 587.39 343.37C584.969 342.717 583.13 342.866 581.916 343.832C579.921 345.415 579.985 348.823 579.992 348.851C580.02 349.561 579.516 350.179 578.82 350.3C578.728 350.328 578.65 350.335 578.565 350.335Z"
    fill="#15E823" />
  <path
    d="M295.168 250.545L277.262 268.984V243.594C282.715 247.187 288.764 249.601 295.168 250.545Z"
    fill="#323232" />
  <path
    d="M255.359 434.073L232.163 470.993L231.922 442.578C239.497 439.156 247.329 436.309 255.359 434.073Z"
    fill="#323232" />
  <path d="M352.43 615.137H339.508V595.541L352.43 615.137Z" fill="#323232" />
</svg>
  