<svg width="710" height="710" viewBox="0 0 710 710" fill="none" xmlns="http://www.w3.org/2000/svg">
  <g filter="url(#filter0_d_8_34)">
    <path
      d="M202.442 509.212C203.202 508.459 203.869 507.551 204.409 506.507C203.876 507.551 203.202 508.467 202.442 509.212Z"
      fill="#15E823" />
    <path
      d="M667.698 588.895H526.103L525.989 547.779L525.982 544.939L525.94 528.815L525.933 527.395C525.578 527.707 525.215 528.02 524.853 528.339C522.645 530.271 520.331 532.266 517.924 534.325C511.186 540.083 504.718 545.514 498.498 550.633H498.491C490.205 486.322 445.106 472.406 432.582 469.764C432.702 469.601 432.823 469.438 432.937 469.274C433.15 468.983 433.363 468.692 433.576 468.401C434.279 467.45 434.967 466.498 435.649 465.561C446.271 450.864 456.083 435.606 465.022 419.83C468.621 413.483 472.079 407.05 475.388 400.539C477.411 396.556 479.619 392.651 481.962 388.817C482.495 387.93 483.034 387.056 483.595 386.183C485.988 382.37 488.508 378.629 491.1 374.979C493.72 371.259 496.46 367.602 499.35 364.06C505.087 356.981 511.385 350.335 518.328 344.428C518.648 344.158 518.967 343.888 519.287 343.633C531.804 333.203 544.868 326.792 558.756 327.828C565.827 328.361 573.119 330.824 580.652 335.667C599.978 348.092 614.874 366.147 626.454 386.183C626.973 387.064 627.477 387.951 627.967 388.839C634.918 401.249 640.626 414.342 645.369 427.271C649.962 439.781 653.647 452.582 656.594 465.561C656.814 466.505 657.027 467.457 657.233 468.401C662.245 491.327 665.036 514.778 666.583 538.137C666.733 540.402 666.875 542.667 666.995 544.939C667.052 545.883 667.102 546.828 667.144 547.779C667.215 549 667.272 550.229 667.329 551.457C667.471 554.574 668.358 588.895 667.698 588.895Z"
      fill="#15E823" />
    <path
      d="M525.925 528.815C525.599 528.815 525.272 528.702 525.01 528.481C524.413 527.977 524.335 527.076 524.846 526.479L559.515 485.519C560.02 484.923 560.914 484.845 561.518 485.356C562.114 485.86 562.192 486.762 561.681 487.358L527.012 528.318C526.735 528.645 526.33 528.815 525.925 528.815Z"
      fill="#323232" />
    <path
      d="M627.271 389.023H482.693C481.912 389.023 481.273 388.384 481.273 387.603C481.273 386.822 481.912 386.183 482.693 386.183H627.271C628.052 386.183 628.691 386.822 628.691 387.603C628.691 388.384 628.052 389.023 627.271 389.023Z"
      fill="white" />
    <path
      d="M657.517 468.401H432.575C431.794 468.401 431.155 467.762 431.155 466.981C431.155 466.2 431.794 465.561 432.575 465.561H657.51C658.291 465.561 658.93 466.2 658.93 466.981C658.93 467.762 658.298 468.401 657.517 468.401Z"
      fill="white" />
    <path
      d="M667.322 547.779H525.933C525.152 547.779 524.513 547.14 524.513 546.359C524.513 545.578 525.152 544.939 525.933 544.939H667.329C668.11 544.939 668.749 545.578 668.749 546.359C668.749 547.14 668.11 547.779 667.322 547.779Z"
      fill="white" />
    <path
      d="M92.0373 559.026L299.847 419.958C300.231 419.702 300.685 419.56 301.147 419.56H360.474C362.597 419.56 363.619 422.152 362.072 423.607L213.561 562.675C213.128 563.08 212.56 563.307 211.963 563.307H93.3366C91.0291 563.3 90.1203 560.311 92.0373 559.026Z"
      fill="#15E823" />
    <path
      d="M558.749 327.828C544.861 326.792 531.797 333.203 519.28 343.633C518.96 343.889 518.641 344.158 518.321 344.428C511.378 350.335 505.08 356.981 499.343 364.06L485.086 329.809L485.051 329.731L478.49 313.983L478.142 313.138C471.39 320.572 454.357 334.822 431.772 321.303C422.365 315.673 415.18 306.99 410.991 296.851C409.003 292.051 407.093 286.251 406.227 280.194C405.495 280.436 404.714 280.564 403.898 280.564C399.766 280.564 396.414 277.212 396.414 273.08C396.414 269.914 398.381 267.209 401.164 266.115C399.439 256.466 394.796 223.359 406.354 196.883C410.593 187.17 417.019 178.345 426.568 171.905C466.257 145.117 503.766 178.522 511.711 202.18C512.137 202.201 512.563 202.229 512.989 202.265C513.713 202.329 514.43 202.421 515.133 202.542C515.346 202.577 515.559 202.613 515.765 202.655C515.886 202.677 516.007 202.705 516.12 202.726C516.333 202.769 516.546 202.812 516.752 202.868C516.802 202.875 516.845 202.882 516.894 202.897C517.753 203.095 518.591 203.337 519.415 203.621C519.635 203.692 519.848 203.77 520.061 203.848C521.14 204.239 522.191 204.7 523.199 205.218C523.391 205.318 523.582 205.417 523.774 205.524C525.365 206.383 526.856 207.398 528.24 208.534C529.617 209.67 530.881 210.941 532.017 212.318C532.159 212.496 532.301 212.666 532.443 212.844L532.848 213.376C532.983 213.554 533.118 213.738 533.245 213.923C533.395 214.129 533.537 214.335 533.679 214.548C533.785 214.711 533.892 214.874 533.998 215.038C534.119 215.222 534.24 215.414 534.353 215.606C534.651 216.096 534.935 216.593 535.198 217.097C535.283 217.253 535.361 217.409 535.439 217.565C535.51 217.7 535.574 217.842 535.645 217.984C535.745 218.183 535.837 218.389 535.929 218.595C536.213 219.213 536.469 219.844 536.703 220.49C536.781 220.703 536.859 220.916 536.93 221.137C536.994 221.307 537.051 221.485 537.101 221.655C537.257 222.138 537.392 222.62 537.52 223.11C537.577 223.338 537.633 223.558 537.683 223.785C537.733 223.998 537.782 224.211 537.825 224.424C538.024 225.397 538.173 226.383 538.272 227.392C538.294 227.598 538.308 227.796 538.322 228.002C538.372 228.691 538.4 229.394 538.4 230.097C538.4 230.452 538.393 230.8 538.379 231.148C538.365 231.503 538.35 231.851 538.322 232.191C538.301 232.447 538.279 232.703 538.258 232.951C538.251 232.994 538.251 233.029 538.244 233.065C538.223 233.263 538.201 233.462 538.173 233.654C538.145 233.888 538.116 234.123 538.081 234.35C538.031 234.655 537.981 234.96 537.924 235.259C537.797 235.926 537.655 236.586 537.477 237.239C537.392 237.566 537.3 237.893 537.2 238.212C537.115 238.496 537.023 238.78 536.93 239.057C536.788 239.49 536.632 239.923 536.462 240.342C536.37 240.576 536.277 240.804 536.178 241.031C535.78 241.961 535.34 242.87 534.85 243.743C534.694 244.013 534.538 244.276 534.382 244.545C534.211 244.829 534.034 245.106 533.849 245.383C533.672 245.66 533.487 245.93 533.295 246.2C533.281 246.228 533.26 246.249 533.245 246.271C533.075 246.512 532.898 246.753 532.713 246.988C532.521 247.25 532.315 247.506 532.117 247.755C531.946 247.968 531.769 248.181 531.584 248.386C531.442 248.557 531.293 248.72 531.137 248.883C530.988 249.054 530.839 249.217 530.682 249.373C530.356 249.721 530.022 250.055 529.674 250.382C529.532 250.516 529.39 250.651 529.241 250.779C528.332 251.61 527.367 252.377 526.351 253.08C526.117 253.25 525.876 253.406 525.641 253.555C525.592 253.598 525.535 253.633 525.471 253.669C525.215 253.832 524.967 253.988 524.704 254.137C524.434 254.301 524.165 254.457 523.888 254.606C523.852 254.627 523.817 254.649 523.774 254.67C523.511 254.812 523.242 254.954 522.972 255.089C522.674 255.238 522.375 255.38 522.077 255.515L558.749 327.828Z"
      fill="#AF5D45" />
    <path
      d="M478.142 314.558C477.83 314.558 477.511 314.452 477.248 314.239C476.637 313.742 476.545 312.847 477.042 312.244C477.12 312.144 484.973 302.354 485.832 290.731C485.889 289.95 486.563 289.361 487.351 289.417C488.132 289.474 488.721 290.156 488.665 290.937C487.742 303.475 479.598 313.614 479.25 314.04C478.966 314.381 478.554 314.558 478.142 314.558Z"
      fill="#323232" />
    <path
      d="M466.449 419.56L466.172 420.242C466.094 420.419 466.023 420.597 465.952 420.782C465.952 420.782 453.292 441.272 435.649 465.561C434.967 466.498 434.279 467.45 433.576 468.401C433.363 468.692 433.15 468.983 432.937 469.275C432.816 469.438 432.695 469.601 432.575 469.764C431.758 470.872 430.927 471.987 430.097 473.108C429.969 473.272 429.841 473.442 429.72 473.613C428.996 474.578 428.265 475.551 427.527 476.524C427.463 476.609 427.399 476.694 427.342 476.772H427.335C427.214 476.935 427.086 477.106 426.966 477.269C426.412 478 425.858 478.725 425.297 479.456C424.921 479.946 424.545 480.436 424.168 480.926C423.87 481.309 423.572 481.699 423.281 482.083H423.274C423.195 482.189 423.117 482.289 423.039 482.388C422.656 482.878 422.28 483.368 421.896 483.858C339.238 476.154 298.512 483.389 285.825 486.492C285.321 486.613 284.859 486.726 284.447 486.84H284.44C282.14 484.177 279.236 480.961 276.027 477.766C275.672 477.404 275.31 477.049 274.947 476.694C274.223 475.984 273.485 475.281 272.732 474.585C272.732 474.585 272.725 474.592 272.725 474.585C271.98 473.889 271.22 473.208 270.453 472.54C269.686 471.88 268.912 471.227 268.131 470.588C268.593 470.446 269.125 470.29 269.708 470.105C277.106 467.812 292.818 462.238 286.109 458.191C279.435 454.166 267.01 461.124 261.656 464.532C261.209 464.816 260.811 465.071 260.471 465.306H260.463C260.208 465.171 259.952 465.036 259.704 464.908C256.509 463.282 252.838 462.87 249.359 463.637C248.876 463.737 248.401 463.864 247.932 464.013C247.513 464.148 247.059 464.283 246.576 464.425C242.997 465.462 237.914 466.555 233.065 466.3C233.022 465.845 232.994 465.377 232.979 464.887C232.717 457.055 235.784 444.929 252.419 432.681C272.129 418.176 310.327 433.391 325.215 440.832C330.079 443.26 335.589 444.034 340.928 443.033L465.022 419.83L466.449 419.56Z"
      fill="#AF5D45" />
    <path
      d="M498.491 550.633C420.888 614.533 382.165 629.6 347.02 615.648C345.238 614.938 343.427 614.122 341.581 613.206C340.971 612.9 340.353 612.588 339.735 612.261C339.11 611.935 338.486 611.594 337.854 611.246C337.229 610.898 336.604 610.543 335.972 610.174H335.965C334.389 609.251 332.798 608.278 331.194 607.249H331.187C330.548 606.83 329.909 606.411 329.263 605.985C327.97 605.126 326.671 604.231 325.372 603.308C324.726 602.847 324.08 602.385 323.426 601.91C323.1 601.675 322.773 601.434 322.44 601.192C320.814 599.985 319.181 598.743 317.555 597.472C316.575 596.705 315.588 595.924 314.608 595.136C313.962 594.604 313.316 594.078 312.663 593.546C310.71 591.941 308.765 590.294 306.834 588.618C306.195 588.057 305.556 587.497 304.917 586.936C303 585.253 301.097 583.535 299.215 581.809C298.598 581.234 297.973 580.659 297.355 580.084C295.502 578.359 293.663 576.619 291.867 574.88C291.27 574.298 290.674 573.73 290.085 573.155C288.608 571.72 287.16 570.286 285.733 568.859C284.881 568 284.036 567.155 283.205 566.31C282.374 565.472 281.558 564.635 280.748 563.804C280.479 563.527 280.209 563.257 279.946 562.98C277.823 560.786 275.785 558.649 273.854 556.597C273.371 556.086 272.896 555.575 272.427 555.071C272.193 554.822 271.959 554.574 271.731 554.325C270.808 553.331 269.921 552.366 269.055 551.429C268.622 550.96 268.203 550.491 267.784 550.037C267.365 549.583 266.96 549.135 266.563 548.695C266.165 548.255 265.774 547.822 265.391 547.396C265.008 546.977 264.631 546.558 264.269 546.153C263.538 545.337 262.849 544.556 262.189 543.817C261.862 543.441 261.543 543.086 261.23 542.731C260.613 542.028 260.031 541.368 259.491 540.75C257.872 538.89 256.623 537.427 255.792 536.455C255.451 536.05 255.181 535.73 254.982 535.496C254.94 535.454 254.904 535.411 254.876 535.368C254.777 535.248 254.706 535.162 254.67 535.127C254.649 535.091 254.635 535.077 254.635 535.077H254.627C249.338 534.921 244.396 533.934 239.845 532.408C239.022 532.131 238.205 531.833 237.41 531.527C237.403 531.527 237.403 531.527 237.403 531.527C236.203 531.059 235.031 530.555 233.888 530.022C233.505 529.852 233.122 529.667 232.745 529.482C230.878 528.559 229.096 527.558 227.392 526.508C227.051 526.302 226.71 526.089 226.377 525.869C225.716 525.443 225.063 525.002 224.424 524.569C223.785 524.129 223.16 523.682 222.55 523.227C221.336 522.319 220.178 521.403 219.078 520.487C216.046 517.966 213.469 515.424 211.381 513.16C210.054 511.718 208.925 510.391 207.995 509.247C207.469 508.594 207.008 508.005 206.61 507.487C206.291 507.061 206.014 506.684 205.787 506.365C206.397 505.939 206.582 505.108 206.184 504.462L202.215 497.994C201.803 497.327 200.93 497.114 200.263 497.525C199.595 497.937 199.382 498.81 199.794 499.478L203.763 505.946C203.919 506.209 204.154 506.393 204.409 506.507C203.87 507.551 203.202 508.459 202.442 509.212C199.794 511.86 196.088 512.556 193.582 510.178C192.055 508.715 190.976 506.109 190.862 502.098C190.642 494.16 193.873 489.403 196.478 486.875C197.217 486.158 197.898 485.626 198.445 485.249C198.829 485.881 199.638 486.116 200.298 485.775C200.355 485.746 205.879 483.048 211.616 489.971C211.893 490.305 212.304 490.482 212.709 490.482C213.029 490.482 213.348 490.376 213.618 490.163C214.221 489.659 214.299 488.764 213.802 488.16C210.11 483.702 206.34 482.573 203.827 482.417C201.292 482.253 199.51 483.006 199.091 483.205L198.459 481.763C197.6 479.797 197.401 477.567 198.09 475.537C198.523 474.266 199.184 473.3 199.957 472.569C202.052 470.602 204.991 470.332 206.702 470.361C206.702 470.361 206.702 470.361 206.702 470.368C206.695 470.467 206.695 470.567 206.71 470.666C206.816 471.447 207.533 471.987 208.307 471.88C208.591 471.845 215.308 471.028 221.208 477.738C221.485 478.057 221.875 478.22 222.273 478.22C222.606 478.22 222.94 478.107 223.217 477.865C223.806 477.347 223.863 476.453 223.345 475.863C217.423 469.118 210.636 468.898 208.548 469.012C209.138 467.294 209.912 466.023 210.842 465.107C214.74 461.259 221.357 463.68 228.776 465.646C229.706 465.895 230.672 466.065 231.652 466.179C231.645 466.214 231.645 466.25 231.645 466.285C231.638 467.066 232.27 467.712 233.051 467.72H233.448C235.259 467.72 237.197 467.57 239.654 467.237C241.961 466.924 244.261 466.477 246.498 465.909C246.931 465.795 247.357 465.682 247.783 465.568C249.643 465.071 251.397 464.596 253.25 464.588H253.321C255.124 464.588 257.645 464.915 259.59 466.427C260.215 466.91 261.103 466.797 261.585 466.179C261.628 466.129 261.664 466.072 261.692 466.016C263.183 466.903 264.702 467.947 266.208 469.083C266.484 469.289 266.754 469.502 267.024 469.715C266.555 470.297 266.626 471.149 267.187 471.653C271.043 475.082 281.444 484.639 283.233 487.578C283.503 488.018 283.965 488.26 284.447 488.26C284.696 488.26 284.952 488.196 285.186 488.061C285.257 488.018 285.328 487.969 285.385 487.905C286.599 489.282 287.87 490.61 289.19 491.895C291.86 494.501 294.721 496.915 297.732 499.123L356.512 542.227C356.058 542.838 356.164 543.704 356.768 544.179L373.162 557.194C373.418 557.4 373.73 557.499 374.042 557.499C374.461 557.499 374.873 557.314 375.157 556.967C375.647 556.349 375.548 555.461 374.93 554.971L359.26 542.532C368.795 539.096 379.772 530.505 390.976 519.4C392.019 518.364 393.063 517.306 394.107 516.234C396.904 513.358 399.702 510.341 402.485 507.224C403.181 506.443 403.877 505.662 404.572 504.867C406.312 502.893 408.044 500.877 409.762 498.839C410.451 498.022 411.133 497.206 411.821 496.382C413.533 494.323 415.229 492.25 416.912 490.156C417.587 489.318 418.254 488.48 418.921 487.642C419.923 486.385 420.916 485.122 421.903 483.858C422.287 483.368 422.663 482.878 423.039 482.388C423.125 482.289 423.203 482.189 423.281 482.083C423.572 481.699 423.87 481.309 424.168 480.926C424.552 480.436 424.928 479.946 425.297 479.456C425.858 478.725 426.412 478 426.966 477.269C427.093 477.106 427.221 476.942 427.342 476.772C427.399 476.694 427.463 476.609 427.527 476.524C428.272 475.551 429.003 474.578 429.72 473.613C429.848 473.442 429.976 473.272 430.097 473.108C430.935 471.987 431.765 470.872 432.582 469.764C445.106 472.406 490.205 486.322 498.491 550.633Z"
      fill="#AF5D45" />
    <path
      d="M196.478 486.875C193.873 489.403 190.642 494.16 190.862 502.098C190.976 506.109 192.055 508.715 193.582 510.178C192.048 508.722 190.969 506.116 190.855 502.098C190.635 494.153 193.873 489.396 196.478 486.875Z"
      fill="#AF5D45" />
    <path
      d="M205.786 506.365C206.014 506.684 206.29 507.061 206.61 507.487C206.283 507.061 206.014 506.684 205.779 506.372C205.289 505.69 205.02 505.286 204.977 505.215C204.97 505.208 204.97 505.208 204.97 505.208C204.807 505.662 204.615 506.095 204.409 506.507C204.153 506.393 203.919 506.209 203.763 505.946L199.794 499.478C199.382 498.811 199.595 497.937 200.263 497.525C200.93 497.114 201.803 497.327 202.215 497.994L206.184 504.462C206.582 505.108 206.397 505.939 205.786 506.365Z"
      fill="#AF5D45" />
    <path
      d="M206.61 507.487C207.008 508.005 207.469 508.594 207.995 509.247C207.462 508.594 207.001 508.005 206.61 507.487Z"
      fill="#AF5D45" />
    <path
      d="M207.995 509.247C208.925 510.391 210.053 511.718 211.381 513.16C210.046 511.718 208.918 510.391 207.995 509.247Z"
      fill="#AF5D45" />
    <path
      d="M213.802 488.16C214.299 488.764 214.221 489.659 213.618 490.163C213.348 490.376 213.028 490.482 212.709 490.482C212.304 490.482 211.892 490.305 211.615 489.971C205.879 483.048 200.355 485.747 200.298 485.775C199.638 486.116 198.828 485.881 198.445 485.25C198.445 485.25 198.438 485.25 198.445 485.242C198.488 485.214 198.53 485.186 198.573 485.157C199.233 484.71 199.652 484.504 199.652 484.504L199.084 483.205L198.452 481.763C197.593 479.797 197.394 477.567 198.083 475.537C198.516 474.266 199.176 473.293 199.957 472.569C199.183 473.3 198.523 474.266 198.09 475.537C197.401 477.567 197.6 479.797 198.459 481.763L199.091 483.205C199.51 483.006 201.292 482.253 203.827 482.417C206.34 482.573 210.11 483.702 213.802 488.16Z"
      fill="#AF5D45" />
    <path
      d="M219.078 520.487C220.178 521.403 221.335 522.319 222.55 523.227C221.328 522.326 220.171 521.41 219.078 520.487Z"
      fill="#AF5D45" />
    <path
      d="M223.345 475.863C223.863 476.453 223.806 477.347 223.217 477.865C222.94 478.107 222.606 478.22 222.273 478.22C221.875 478.22 221.484 478.057 221.208 477.738C215.307 471.028 208.591 471.845 208.307 471.88C207.533 471.987 206.816 471.447 206.709 470.666C206.695 470.567 206.695 470.467 206.702 470.368H206.965C207.661 470.403 208.101 470.474 208.101 470.474C208.236 469.956 208.378 469.466 208.541 469.012C209.131 467.287 209.911 466.016 210.842 465.107C209.911 466.023 209.138 467.294 208.548 469.012C210.636 468.898 217.423 469.118 223.345 475.863Z"
      fill="#AF5D45" />
    <path
      d="M227.392 526.508C229.096 527.558 230.878 528.56 232.745 529.483C230.878 528.56 229.089 527.565 227.392 526.508Z"
      fill="#AF5D45" />
    <path
      d="M233.888 530.022C235.031 530.555 236.203 531.059 237.403 531.527C236.196 531.059 235.024 530.555 233.888 530.022Z"
      fill="#AF5D45" />
    <path
      d="M254.634 535.077C254.634 535.077 254.648 535.091 254.669 535.126C254.641 535.091 254.627 535.077 254.627 535.077H254.634Z"
      fill="#AF5D45" />
    <path
      d="M254.67 535.127C254.705 535.163 254.776 535.248 254.876 535.369C254.776 535.255 254.705 535.17 254.67 535.127Z"
      fill="#AF5D45" />
    <path
      d="M254.982 535.496C255.181 535.73 255.451 536.05 255.792 536.455C255.444 536.05 255.174 535.73 254.982 535.496Z"
      fill="#AF5D45" />
    <path
      d="M255.792 536.455C256.622 537.427 257.872 538.89 259.491 540.75C257.872 538.89 256.615 537.427 255.792 536.455Z"
      fill="#AF5D45" />
    <path
      d="M259.59 466.427C257.645 464.915 255.124 464.588 253.321 464.588H253.25C251.397 464.596 249.643 465.071 247.783 465.568C247.357 465.682 246.931 465.796 246.498 465.909C244.261 466.477 241.961 466.924 239.653 467.237C237.197 467.571 235.258 467.72 233.448 467.72H233.05C232.269 467.713 231.638 467.066 231.645 466.285C231.645 466.25 231.645 466.214 231.652 466.179C232.12 466.236 232.589 466.271 233.065 466.3C237.914 466.555 242.998 465.462 246.576 464.425C247.059 464.283 247.513 464.148 247.932 464.013C248.401 463.864 248.876 463.737 249.359 463.637C252.838 462.87 256.509 463.282 259.704 464.908C259.952 465.036 260.208 465.171 260.464 465.306H260.471C260.875 465.533 261.287 465.767 261.692 466.016C261.663 466.072 261.628 466.129 261.585 466.179C261.102 466.797 260.215 466.91 259.59 466.427Z"
      fill="#AF5D45" />
    <path
      d="M262.189 543.817C262.849 544.556 263.538 545.337 264.269 546.153C263.538 545.337 262.842 544.556 262.189 543.817Z"
      fill="#AF5D45" />
    <path
      d="M269.055 551.429C269.921 552.366 270.808 553.331 271.731 554.325C270.808 553.331 269.914 552.366 269.055 551.429Z"
      fill="#AF5D45" />
    <path
      d="M273.854 556.597C275.785 558.649 277.823 560.786 279.946 562.98C277.816 560.786 275.778 558.649 273.854 556.597Z"
      fill="#AF5D45" />
    <path
      d="M267.187 471.653C266.626 471.149 266.555 470.297 267.024 469.715H267.031C267.393 469.999 267.762 470.29 268.124 470.588H268.132C268.913 471.227 269.686 471.88 270.453 472.54C271.22 473.215 271.973 473.897 272.725 474.585C272.725 474.592 272.732 474.585 272.732 474.585C273.478 475.288 274.216 475.991 274.948 476.694C275.31 477.049 275.672 477.404 276.027 477.766C279.236 480.961 282.14 484.177 284.44 486.84C284.49 486.897 284.533 486.946 284.582 487.003C284.845 487.308 285.108 487.607 285.385 487.905C285.328 487.969 285.257 488.018 285.186 488.061C284.951 488.196 284.696 488.26 284.447 488.26C283.965 488.26 283.503 488.018 283.233 487.578C281.444 484.639 271.043 475.082 267.187 471.653Z"
      fill="#AF5D45" />
    <path
      d="M317.555 597.472C319.181 598.743 320.814 599.986 322.439 601.193C320.814 599.993 319.181 598.75 317.555 597.472Z"
      fill="#AF5D45" />
    <path
      d="M331.194 607.249C332.798 608.278 334.389 609.251 335.965 610.174C334.389 609.258 332.798 608.278 331.194 607.249Z"
      fill="#AF5D45" />
    <path
      d="M375.157 556.967C374.873 557.314 374.461 557.499 374.042 557.499C373.73 557.499 373.417 557.4 373.162 557.194L356.768 544.179C356.164 543.704 356.058 542.838 356.512 542.227L357.648 543.065C358.181 542.901 358.713 542.724 359.26 542.532L374.93 554.971C375.547 555.461 375.647 556.349 375.157 556.967Z"
      fill="#AF5D45" />
    <path
      d="M394.107 516.234C396.897 513.358 399.694 510.341 402.485 507.224C399.702 510.341 396.904 513.358 394.107 516.234Z"
      fill="#AF5D45" />
    <path
      d="M404.572 504.867C406.312 502.893 408.037 500.877 409.762 498.839C408.044 500.877 406.312 502.893 404.572 504.867Z"
      fill="#AF5D45" />
    <path
      d="M421.896 483.858C422.28 483.368 422.656 482.878 423.039 482.388C422.663 482.878 422.287 483.368 421.903 483.858C420.916 485.122 419.922 486.386 418.921 487.642C419.915 486.386 420.909 485.122 421.896 483.858Z"
      fill="#AF5D45" />
    <path
      d="M423.274 482.083C423.572 481.699 423.87 481.309 424.168 480.926C423.87 481.309 423.572 481.699 423.281 482.083C423.203 482.189 423.125 482.289 423.039 482.388C423.117 482.289 423.195 482.189 423.274 482.083Z"
      fill="#AF5D45" />
    <path
      d="M427.335 476.772C427.399 476.694 427.463 476.609 427.526 476.524C427.463 476.609 427.399 476.694 427.342 476.772C427.221 476.943 427.093 477.106 426.966 477.269C426.412 478 425.858 478.725 425.297 479.456C425.979 478.561 426.66 477.667 427.335 476.772Z"
      fill="#AF5D45" />
    <path
      d="M432.582 469.764C431.765 470.872 430.935 471.987 430.097 473.108C430.927 471.987 431.758 470.872 432.575 469.764H432.582Z"
      fill="#AF5D45" />
    <path
      d="M247.932 465.433C247.165 465.433 246.533 464.823 246.512 464.056C246.498 463.488 246.242 450.062 258.653 441.84C259.306 441.407 260.187 441.585 260.62 442.238C261.053 442.891 260.875 443.771 260.222 444.204C249.167 451.532 249.352 463.85 249.352 463.971C249.373 464.752 248.756 465.405 247.975 465.426C247.96 465.433 247.946 465.433 247.932 465.433Z"
      fill="#323232" />
    <path
      d="M205.786 506.365L205.779 506.372C205.758 506.386 205.737 506.4 205.715 506.415C205.481 506.564 205.226 506.628 204.977 506.628C204.785 506.628 204.586 506.585 204.409 506.507C204.153 506.393 203.919 506.209 203.763 505.946L199.794 499.478C199.382 498.811 199.595 497.937 200.263 497.525C200.93 497.114 201.803 497.327 202.215 497.994L206.184 504.462C206.582 505.108 206.397 505.939 205.786 506.365Z"
      fill="#323232" />
    <path
      d="M213.618 490.163C213.348 490.376 213.028 490.482 212.709 490.482C212.304 490.482 211.892 490.305 211.615 489.971C205.879 483.048 200.355 485.747 200.298 485.775C199.638 486.116 198.828 485.881 198.445 485.25C198.445 485.25 198.438 485.25 198.445 485.242C198.424 485.214 198.402 485.186 198.388 485.15C198.033 484.447 198.31 483.595 199.013 483.24C199.027 483.233 199.049 483.219 199.084 483.205H199.091C199.51 483.006 201.292 482.253 203.827 482.417C206.34 482.573 210.11 483.702 213.802 488.16C214.299 488.764 214.221 489.659 213.618 490.163Z"
      fill="#323232" />
    <path
      d="M223.217 477.865C222.94 478.107 222.606 478.22 222.273 478.22C221.875 478.22 221.484 478.057 221.208 477.738C215.307 471.028 208.591 471.845 208.307 471.88C207.533 471.987 206.816 471.447 206.709 470.666C206.695 470.567 206.695 470.467 206.702 470.368C206.702 470.361 206.702 470.361 206.702 470.361C206.745 469.708 207.235 469.161 207.909 469.069C207.959 469.061 208.179 469.026 208.541 469.012C208.541 469.012 208.541 469.012 208.548 469.012C210.636 468.898 217.423 469.118 223.345 475.863C223.863 476.453 223.806 477.347 223.217 477.865Z"
      fill="#323232" />
    <path
      d="M375.157 556.967C374.873 557.315 374.461 557.499 374.042 557.499C373.73 557.499 373.417 557.4 373.162 557.194L356.768 544.18C356.164 543.704 356.058 542.838 356.512 542.227C356.519 542.213 356.534 542.199 356.541 542.184C357.031 541.567 357.925 541.467 358.536 541.957L359.26 542.532L374.93 554.972C375.547 555.461 375.647 556.349 375.157 556.967Z"
      fill="#323232" />
    <path
      d="M261.692 466.016C261.663 466.072 261.628 466.129 261.585 466.179C261.102 466.797 260.215 466.91 259.59 466.427C257.645 464.915 255.124 464.588 253.321 464.588H253.25C251.397 464.596 249.643 465.071 247.783 465.568C247.357 465.682 246.931 465.796 246.498 465.909C244.261 466.477 241.961 466.924 239.653 467.237C237.197 467.571 235.258 467.72 233.448 467.72H233.05C232.269 467.713 231.638 467.066 231.645 466.285C231.645 466.25 231.645 466.214 231.652 466.179C231.708 465.476 232.277 464.922 232.979 464.887C233.008 464.88 233.036 464.88 233.065 464.88H233.086C234.868 464.901 236.778 464.759 239.277 464.425C241.471 464.127 243.672 463.701 245.802 463.161C246.051 463.098 246.292 463.034 246.533 462.963C246.711 462.92 246.881 462.877 247.052 462.828C247.84 462.615 248.635 462.402 249.451 462.224C250.658 461.954 251.915 461.756 253.243 461.748H253.328C256.523 461.748 259.292 462.586 261.337 464.184C261.465 464.283 261.571 464.404 261.656 464.532C261.94 464.972 261.969 465.547 261.692 466.016Z"
      fill="#323232" />
    <path
      d="M285.392 487.905C285.392 487.905 285.392 487.912 285.385 487.905C285.328 487.969 285.257 488.018 285.186 488.061C284.951 488.196 284.696 488.26 284.447 488.26C283.965 488.26 283.503 488.018 283.233 487.578C281.444 484.639 271.043 475.082 267.187 471.653C266.626 471.149 266.555 470.297 267.024 469.715H267.031C267.038 469.693 267.052 469.672 267.074 469.651C267.592 469.069 268.494 469.012 269.076 469.537C269.204 469.651 269.417 469.842 269.708 470.105C272.69 472.782 283.531 482.608 285.661 486.109C285.74 486.229 285.789 486.364 285.825 486.492C285.953 487.003 285.789 487.55 285.392 487.905Z"
      fill="#323232" />
    <path
      d="M482.516 230.097C482.516 237.843 485.668 244.851 490.759 249.906C484.625 254.933 476.424 257.524 468.543 256.53C447.272 253.853 437.892 229.302 431.588 211.97C429.365 205.857 428.059 197.529 422.571 193.347C418.687 190.387 413.255 191.473 409.443 194.029C408.548 194.625 407.483 196.031 406.354 196.883C410.593 187.17 417.018 178.345 426.568 171.905C466.257 145.117 503.766 178.522 511.711 202.18C511.292 202.158 510.873 202.151 510.454 202.151C495.026 202.151 482.516 214.661 482.516 230.097Z"
      fill="#323232" />
    <path
      d="M533.863 92.6834C529.916 91.7888 525.791 92.9816 522.851 95.7648C505.406 112.308 489.943 137.371 497.348 162.185C500.309 172.104 508.268 178.018 518.52 178.501C531.329 179.105 542.575 171.699 554.986 169.946C561.887 168.973 570.592 168.824 578.955 171.713C580.936 172.395 583.073 171.238 583.506 169.193C585.012 162.029 585.672 146.182 567.688 131.996C565.068 129.93 561.717 129.057 558.422 129.568C552.423 130.498 542.348 133.53 532.954 143.242C532.954 143.242 538.301 120.714 562.597 116.298C564.642 115.929 565.622 113.572 564.457 111.846C560.772 106.429 551.94 96.7943 533.863 92.6834Z"
      fill="#323232" />
    <path
      d="M503.305 236.231C502.836 236.231 502.375 235.997 502.105 235.571C501.686 234.911 501.878 234.03 502.538 233.611L517.384 224.147C518.044 223.728 518.925 223.92 519.344 224.58C519.763 225.24 519.571 226.121 518.911 226.54L504.064 236.004C503.83 236.16 503.56 236.231 503.305 236.231Z"
      fill="#323232" />
    <path
      d="M418.105 283.46C417.331 283.46 416.699 282.843 416.685 282.062C416.671 281.281 417.295 280.635 418.076 280.62C418.126 280.62 421.044 280.507 422.89 278.384C424.232 276.843 424.743 274.557 424.403 271.603C424.317 270.822 424.871 270.119 425.652 270.034C426.426 269.942 427.136 270.503 427.221 271.284C427.654 275.082 426.909 278.114 425.006 280.28C422.308 283.354 418.296 283.46 418.126 283.46C418.119 283.46 418.112 283.46 418.105 283.46Z"
      fill="#323232" />
    <path
      d="M416.784 270.794C414.179 270.794 411.544 269.672 409.187 267.521C406.361 264.944 404.267 261.166 403.28 256.878C401.193 247.84 404.771 239.263 411.246 237.772C414.484 237.026 417.899 238.106 420.867 240.818C423.693 243.395 425.787 247.172 426.774 251.461C428.861 260.499 425.283 269.076 418.808 270.567C418.14 270.723 417.466 270.794 416.784 270.794ZM413.255 240.385C412.794 240.385 412.34 240.434 411.885 240.541C406.936 241.684 404.317 248.727 406.049 256.239C406.908 259.974 408.704 263.232 411.104 265.426C413.362 267.485 415.868 268.33 418.169 267.798C423.117 266.655 425.737 259.612 424.005 252.1C423.146 248.365 421.349 245.106 418.95 242.912C417.139 241.258 415.158 240.385 413.255 240.385Z"
      fill="#FFAB93" />
    <path
      d="M412.105 258.845C413.266 258.845 414.207 257.904 414.207 256.743C414.207 255.582 413.266 254.641 412.105 254.641C410.945 254.641 410.004 255.582 410.004 256.743C410.004 257.904 410.945 258.845 412.105 258.845Z"
      fill="#323232" />
    <path
      d="M445.198 268.217C448.704 268.217 451.546 265.375 451.546 261.869C451.546 258.364 448.704 255.522 445.198 255.522C441.693 255.522 438.851 258.364 438.851 261.869C438.851 265.375 441.693 268.217 445.198 268.217Z"
      fill="#F77370" />
    <path
      d="M509.283 259.427C508.246 259.427 507.615 259.37 507.536 259.363C506.755 259.292 506.18 258.596 506.251 257.815C506.322 257.034 507.011 256.452 507.792 256.53C507.899 256.544 514.381 257.07 521.552 254.194C522.283 253.903 523.107 254.258 523.398 254.982C523.689 255.706 523.334 256.537 522.61 256.828C517.001 259.086 511.867 259.427 509.283 259.427Z"
      fill="#323232" />
    <path
      d="M424.201 243.425C425.545 240.656 422.725 236.514 417.902 234.173C413.079 231.833 408.081 232.181 406.737 234.95C405.393 237.72 408.213 241.862 413.035 244.202C417.858 246.542 422.857 246.195 424.201 243.425Z"
      fill="#323232" />
    <path
      d="M425.389 253.2C424.75 253.2 424.168 252.767 424.012 252.114C423.827 251.354 424.296 250.587 425.056 250.396L483.233 236.295C483.993 236.11 484.76 236.579 484.944 237.339C485.129 238.098 484.66 238.865 483.9 239.057L425.723 253.158C425.617 253.186 425.503 253.2 425.389 253.2Z"
      fill="#FFAB93" />
    <path
      d="M398.622 259.228C397.962 259.228 397.373 258.767 397.231 258.092C397.075 257.325 397.565 256.573 398.331 256.416L404.373 255.167C405.147 255.004 405.893 255.501 406.049 256.267C406.205 257.034 405.715 257.787 404.949 257.943L398.906 259.193C398.814 259.221 398.715 259.228 398.622 259.228Z"
      fill="#FFAB93" />
    <path
      d="M293.883 391.466C293.976 392.119 293.656 392.772 293.081 393.106L292.953 393.177L72.3845 521.488C71.0923 522.233 69.4522 521.417 69.2818 519.933L41.2652 274.145C41.1445 273.094 41.8403 272.122 42.8769 271.887L268.373 222.18C269.559 221.918 270.709 222.72 270.872 223.92L277.958 275.487L280.436 293.557L282.062 305.399L282.282 306.997L282.665 309.787L284.625 324.072L284.88 325.925L285.058 327.232L285.605 331.201L286.535 337.995L287.557 345.422L289.013 355.994L290.901 369.747L293.883 391.466Z"
      fill="#15E823" />
    <path
      d="M58.1845 286.918L257.361 241.485C258.298 241.272 259.221 241.904 259.349 242.863L278.81 383.301C278.902 383.968 278.576 384.628 277.986 384.955L84.632 493.251C83.6167 493.819 82.3458 493.18 82.2038 492.023L56.9207 288.722C56.8213 287.884 57.3609 287.103 58.1845 286.918Z"
      fill="white" />
    <path
      d="M108.14 425.255L113.273 460.045C113.529 461.763 115.403 462.714 116.937 461.905L227.065 403.734C228.009 403.237 228.542 402.187 228.379 401.129L224.566 376.115C224.317 374.482 222.592 373.531 221.08 374.184L109.624 422.578C108.58 423.032 107.977 424.126 108.14 425.255Z"
      fill="#7E875C" />
    <path
      d="M59.0578 307.309C58.4259 307.309 57.8508 306.89 57.6875 306.251C57.4887 305.492 57.9431 304.718 58.6957 304.519L263.971 250.474C264.731 250.275 265.505 250.729 265.703 251.482C265.902 252.235 265.448 253.016 264.695 253.214L59.4199 307.26C59.2992 307.295 59.1785 307.309 59.0578 307.309Z"
      fill="#CF9E97" />
    <path
      d="M91.1711 321.559C90.5605 321.559 89.9925 321.161 89.8079 320.537C89.5878 319.784 90.0138 318.996 90.7664 318.776L190.443 289.467C191.196 289.247 191.984 289.673 192.204 290.425C192.424 291.178 191.998 291.966 191.246 292.186L91.5687 321.495C91.4409 321.545 91.306 321.559 91.1711 321.559Z"
      fill="#15E823" />
    <path
      d="M93.1378 331.875C92.5343 331.875 91.9663 331.485 91.7817 330.874C91.5474 330.122 91.9734 329.326 92.7189 329.099L126.103 318.79C126.856 318.563 127.644 318.982 127.878 319.727C128.112 320.48 127.686 321.275 126.941 321.502L93.5567 331.811C93.4147 331.854 93.2798 331.875 93.1378 331.875Z"
      fill="#7E875C" />
    <path
      d="M138.045 318.009C137.435 318.009 136.874 317.619 136.689 317.001C136.462 316.248 136.881 315.46 137.633 315.226L184.075 301.005C184.82 300.77 185.615 301.196 185.85 301.949C186.077 302.701 185.658 303.49 184.905 303.724L138.464 317.945C138.322 317.995 138.187 318.009 138.045 318.009Z"
      fill="#323232" />
    <path
      d="M95.3388 341.467C94.7353 341.467 94.1673 341.077 93.9827 340.466C93.7484 339.714 94.1744 338.919 94.9199 338.691L110.313 333.934C111.065 333.7 111.853 334.126 112.088 334.872C112.322 335.624 111.896 336.419 111.151 336.647L95.7577 341.404C95.6157 341.446 95.4737 341.467 95.3388 341.467Z"
      fill="#323232" />
    <path
      d="M120.764 333.565C120.16 333.565 119.599 333.175 119.408 332.571C119.173 331.826 119.592 331.023 120.338 330.789L187.014 309.887C187.76 309.652 188.562 310.071 188.796 310.817C189.03 311.562 188.612 312.365 187.866 312.599L121.19 333.501C121.048 333.544 120.906 333.565 120.764 333.565Z"
      fill="#FFAB93" />
    <path
      d="M98.4273 363.811C97.838 363.811 97.2842 363.435 97.0854 362.845C96.8369 362.1 97.2345 361.298 97.9729 361.042L196.4 327.786C197.146 327.537 197.948 327.935 198.196 328.673C198.445 329.419 198.047 330.221 197.309 330.47L98.8817 363.733C98.7326 363.79 98.5764 363.811 98.4273 363.811Z"
      fill="#AF5D45" />
    <path
      d="M203.216 288.764C202.599 288.764 202.038 288.359 201.853 287.742C201.633 286.989 202.066 286.201 202.819 285.981L237.034 275.984C237.786 275.764 238.574 276.197 238.794 276.95C239.014 277.702 238.581 278.49 237.829 278.71L203.614 288.707C203.479 288.75 203.344 288.764 203.216 288.764Z"
      fill="#AF5D45" />
    <path
      d="M70.0344 327.992C69.4238 327.992 68.8629 327.601 68.6783 326.99C68.4511 326.238 68.87 325.45 69.6155 325.215L79.236 322.262C79.9886 322.035 80.7767 322.454 81.011 323.199C81.2382 323.952 80.8193 324.74 80.0738 324.974L70.4533 327.928C70.3113 327.97 70.1764 327.992 70.0344 327.992Z"
      fill="#323232" />
    <path
      d="M101.516 374.915C100.926 374.915 100.38 374.546 100.174 373.957C99.9183 373.219 100.309 372.409 101.054 372.154L117.604 366.424C118.343 366.168 119.152 366.559 119.408 367.304C119.663 368.043 119.273 368.852 118.527 369.108L101.977 374.837C101.828 374.887 101.672 374.915 101.516 374.915Z"
      fill="#15E823" />
    <path
      d="M122.063 387.042C121.488 387.042 120.941 386.687 120.728 386.112C120.459 385.374 120.835 384.557 121.566 384.288L147.14 374.823C147.872 374.553 148.695 374.93 148.965 375.661C149.235 376.392 148.859 377.216 148.127 377.486L122.56 386.95C122.397 387.007 122.226 387.042 122.063 387.042Z"
      fill="#15E823" />
    <path
      d="M124.002 399.517C123.441 399.517 122.908 399.176 122.681 398.622C122.39 397.891 122.745 397.068 123.469 396.776L176.187 375.689C176.918 375.398 177.741 375.753 178.033 376.477C178.324 377.209 177.969 378.032 177.244 378.323L124.527 399.41C124.357 399.489 124.179 399.517 124.002 399.517Z"
      fill="#323232" />
    <path
      d="M159.246 372.864C158.671 372.864 158.131 372.509 157.918 371.941C157.641 371.209 158.018 370.386 158.749 370.116L191.281 357.954C192.012 357.677 192.836 358.053 193.106 358.784C193.383 359.516 193.006 360.339 192.275 360.609L159.743 372.771C159.58 372.828 159.416 372.864 159.246 372.864Z"
      fill="#FFAB93" />
    <path
      d="M208.321 326.671C207.725 326.671 207.171 326.295 206.972 325.698C206.724 324.953 207.121 324.151 207.867 323.902L236.792 314.218C237.538 313.969 238.34 314.367 238.588 315.112C238.837 315.858 238.439 316.66 237.694 316.909L208.776 326.6C208.626 326.65 208.47 326.671 208.321 326.671Z"
      fill="#7E875C" />
    <path
      d="M202.797 356.392C202.222 356.392 201.675 356.037 201.462 355.469C201.186 354.73 201.562 353.914 202.3 353.644L239.107 339.941C239.845 339.664 240.662 340.04 240.931 340.779C241.208 341.517 240.832 342.334 240.094 342.603L203.287 356.306C203.124 356.363 202.961 356.392 202.797 356.392Z"
      fill="#15E823" />
    <path
      d="M77.0208 370.954C76.4315 370.954 75.8848 370.585 75.6789 369.995C75.4233 369.257 75.8138 368.447 76.5522 368.192L88.6009 364.017C89.3393 363.761 90.1487 364.152 90.4043 364.89C90.6599 365.629 90.2694 366.438 89.531 366.694L77.4823 370.869C77.3332 370.932 77.1699 370.954 77.0208 370.954Z"
      fill="#323232" />
    <path
      d="M133.92 443.012C133.686 443.012 133.452 442.955 133.239 442.841C132.841 442.621 132.564 442.224 132.507 441.769L130.228 423.536C130.15 422.912 130.491 422.315 131.066 422.06L139.728 418.261C140.445 417.949 141.283 418.275 141.595 418.992C141.908 419.709 141.581 420.547 140.864 420.867L133.175 424.239L135.077 439.462L141.503 436.366C142.213 436.025 143.058 436.323 143.399 437.026C143.739 437.729 143.441 438.581 142.738 438.922L134.531 442.87C134.346 442.969 134.133 443.012 133.92 443.012Z"
      fill="white" />
    <path
      d="M167.489 426.085C166.978 426.085 166.481 425.808 166.225 425.318C165.863 424.623 166.133 423.764 166.829 423.401L173.517 419.922L171.401 406.958L163.967 410.302C163.25 410.621 162.412 410.302 162.093 409.592C161.773 408.875 162.093 408.037 162.803 407.718L171.919 403.614C172.324 403.436 172.786 403.45 173.176 403.656C173.567 403.862 173.836 404.246 173.907 404.679L176.492 420.483C176.591 421.087 176.293 421.69 175.746 421.974L168.149 425.922C167.936 426.036 167.716 426.085 167.489 426.085Z"
      fill="white" />
    <path
      d="M151.329 433.54C150.655 433.54 150.059 433.057 149.931 432.376L147.211 417.331C147.069 416.557 147.588 415.819 148.355 415.684C149.121 415.542 149.867 416.06 150.002 416.827L152.721 431.872C152.863 432.646 152.345 433.384 151.578 433.519C151.5 433.533 151.415 433.54 151.329 433.54Z"
      fill="white" />
    <path
      d="M159.693 429.862C159.04 429.862 158.451 429.408 158.309 428.741L155.029 413.454C154.865 412.687 155.355 411.935 156.122 411.764C156.889 411.601 157.641 412.091 157.812 412.858L161.092 428.144C161.255 428.911 160.765 429.664 159.999 429.834C159.892 429.855 159.793 429.862 159.693 429.862Z"
      fill="white" />
    <path
      d="M144.201 424.502C143.669 424.502 143.15 424.197 142.909 423.678C142.575 422.968 142.888 422.123 143.598 421.79L160.822 413.795C161.532 413.468 162.377 413.774 162.711 414.484C163.044 415.194 162.732 416.039 162.022 416.372L144.797 424.367C144.606 424.459 144.4 424.502 144.201 424.502Z"
      fill="white" />
    <path
      d="M146.232 432.518C145.706 432.518 145.202 432.227 144.961 431.73C144.613 431.027 144.904 430.175 145.607 429.827L162.633 421.399C163.336 421.051 164.188 421.342 164.535 422.045C164.883 422.748 164.592 423.6 163.889 423.948L146.864 432.376C146.658 432.475 146.445 432.518 146.232 432.518Z"
      fill="white" />
    <path
      d="M184.344 410.046C183.826 410.039 183.322 409.741 183.088 409.237C182.747 408.527 183.045 407.682 183.755 407.341L216.649 391.565C217.359 391.224 218.204 391.522 218.545 392.232C218.886 392.942 218.588 393.787 217.878 394.128L184.983 409.904C184.77 410.004 184.557 410.053 184.344 410.046Z"
      fill="white" />
    <path
      d="M67.2157 297.384C68.7763 297.384 70.0415 296.118 70.0415 294.558C70.0415 292.997 68.7763 291.732 67.2157 291.732C65.6551 291.732 64.3899 292.997 64.3899 294.558C64.3899 296.118 65.6551 297.384 67.2157 297.384Z"
      fill="#15E823" />
    <path
      d="M77.9651 294.565C79.5257 294.565 80.7909 293.3 80.7909 291.739C80.7909 290.178 79.5257 288.913 77.9651 288.913C76.4044 288.913 75.1393 290.178 75.1393 291.739C75.1393 293.3 76.4044 294.565 77.9651 294.565Z"
      fill="#FFAB93" />
    <path
      d="M91.4991 289.947C91.7198 288.402 90.6463 286.971 89.1014 286.75C87.5565 286.529 86.1252 287.603 85.9046 289.148C85.6839 290.693 86.7574 292.124 88.3023 292.345C89.8472 292.565 91.2784 291.492 91.4991 289.947Z"
      fill="#7E875C" />
    <path
      d="M196.855 300.259C196.237 300.259 195.676 299.854 195.491 299.237C195.271 298.484 195.704 297.696 196.457 297.476L228.251 288.189C229.003 287.969 229.791 288.402 230.012 289.155C230.232 289.907 229.799 290.695 229.046 290.915L197.252 300.202C197.117 300.238 196.989 300.259 196.855 300.259Z"
      fill="#15E823" />
    <path
      d="M129.192 365.48C128.602 365.48 128.056 365.11 127.85 364.528C127.587 363.79 127.977 362.98 128.716 362.718L228.173 327.786C228.918 327.53 229.721 327.914 229.983 328.652C230.246 329.39 229.855 330.2 229.117 330.462L129.66 365.394C129.504 365.458 129.348 365.48 129.192 365.48Z"
      fill="#323232" />
    <path
      d="M338.095 297.923L292.428 316.788L283.78 320.359L270.545 325.819L267.173 327.211L265.902 327.736L255.394 332.074C253.64 332.798 251.674 331.684 251.404 329.802L246.831 298.413C246.618 296.986 247.485 295.63 248.862 295.211L265.142 290.234L278.632 286.109L333.068 269.473C334.779 268.948 336.561 270.091 336.796 271.866L339.863 294.842C340.04 296.155 339.309 297.419 338.095 297.923Z"
      fill="#15E823" />
    <path
      d="M291.874 308.126C291.817 308.126 291.767 308.126 291.711 308.119L281.664 306.961C281.224 306.912 280.833 306.656 280.606 306.28C280.379 305.896 280.343 305.435 280.507 305.023L284.717 294.508C285.008 293.784 285.832 293.429 286.563 293.72C287.287 294.011 287.642 294.842 287.351 295.566L283.83 304.356L292.03 305.3C292.811 305.392 293.365 306.095 293.28 306.876C293.202 307.586 292.591 308.126 291.874 308.126Z"
      fill="white" />
    <path
      d="M312.002 301.587C311.832 301.565 311.662 301.509 311.505 301.416C310.859 301.04 310.639 300.216 311.016 299.563L315.694 291.512L308.126 288.225C307.437 287.926 307.125 287.131 307.423 286.442C307.721 285.754 308.516 285.441 309.205 285.74L318.172 289.63C318.527 289.786 318.797 290.085 318.918 290.447C319.039 290.816 318.996 291.214 318.804 291.547L313.366 300.919C313.075 301.416 312.528 301.658 312.002 301.587Z"
      fill="white" />
    <path
      d="M301.715 307.572C301.012 307.572 300.401 307.047 300.309 306.337L297.604 285.292C297.504 284.511 298.051 283.801 298.832 283.702C299.613 283.602 300.323 284.149 300.422 284.93L303.127 305.975C303.227 306.756 302.68 307.466 301.899 307.565C301.835 307.572 301.771 307.572 301.715 307.572Z"
      fill="white" />
    <path
      d="M310.817 192.367C339.206 192.367 362.221 169.353 362.221 140.963C362.221 112.574 339.206 89.5594 310.817 89.5594C282.427 89.5594 259.413 112.574 259.413 140.963C259.413 169.353 282.427 192.367 310.817 192.367Z"
      fill="#15E823" />
    <path
      d="M325.329 166.481C324.946 166.481 324.555 166.325 324.278 166.019L304.59 144.371C304.306 144.059 304.178 143.633 304.235 143.214L307.998 116.674C308.104 115.9 308.822 115.354 309.603 115.467C310.376 115.574 310.916 116.298 310.81 117.072L307.139 142.951L326.38 164.102C326.905 164.685 326.863 165.579 326.288 166.112C326.011 166.36 325.67 166.481 325.329 166.481Z"
      fill="white" />
    <path d="M486.506 300.77L485.086 329.809L485.051 329.731L478.49 313.983L486.506 300.77Z"
      fill="#323232" />
    <path
      d="M287.003 341.73L270.19 330.59L265.902 327.743L267.173 327.211L270.545 325.819L284.099 320.224L285.931 334.616L286.208 336.462L286.407 337.768L287.003 341.73Z"
      fill="#323232" />
  </g>
  <defs>
    <filter id="filter0_d_8_34" x="-10" y="-6" width="730" height="730" filterUnits="userSpaceOnUse"
      color-interpolation-filters="sRGB">
      <feFlood flood-opacity="0" result="BackgroundImageFix" />
      <feColorMatrix in="SourceAlpha" type="matrix"
        values="0 0 0 0 0 0 0 0 0 0 0 0 0 0 0 0 0 0 127 0" result="hardAlpha" />
      <feOffset dy="4" />
      <feGaussianBlur stdDeviation="5" />
      <feComposite in2="hardAlpha" operator="out" />
      <feColorMatrix type="matrix" values="0 0 0 0 0 0 0 0 0 0 0 0 0 0 0 0 0 0 0.25 0" />
      <feBlend mode="normal" in2="BackgroundImageFix" result="effect1_dropShadow_8_34" />
      <feBlend mode="normal" in="SourceGraphic" in2="effect1_dropShadow_8_34" result="shape" />
    </filter>
  </defs>
</svg>
  